G04 #@! TF.GenerationSoftware,KiCad,Pcbnew,5.0.0-rc3-6a2723a~65~ubuntu16.04.1*
G04 #@! TF.CreationDate,2018-07-19T21:14:32+03:00*
G04 #@! TF.ProjectId,test5,74657374352E6B696361645F70636200,rev?*
G04 #@! TF.SameCoordinates,Original*
G04 #@! TF.FileFunction,Soldermask,Bot*
G04 #@! TF.FilePolarity,Negative*
%FSLAX46Y46*%
G04 Gerber Fmt 4.6, Leading zero omitted, Abs format (unit mm)*
G04 Created by KiCad (PCBNEW 5.0.0-rc3-6a2723a~65~ubuntu16.04.1) date Thu Jul 19 21:14:32 2018*
%MOMM*%
%LPD*%
G01*
G04 APERTURE LIST*
%ADD10R,2.000000X2.000000*%
%ADD11O,2.000000X2.000000*%
%ADD12C,2.000000*%
%ADD13C,1.800000*%
%ADD14O,1.800000X1.800000*%
%ADD15R,2.100000X2.100000*%
%ADD16O,2.100000X2.100000*%
%ADD17R,2.400000X2.400000*%
%ADD18C,2.400000*%
%ADD19R,2.900000X3.900000*%
%ADD20O,3.900000X2.150000*%
%ADD21C,2.200000*%
G04 APERTURE END LIST*
D10*
G04 #@! TO.C,U6*
X80835500Y-230759000D03*
D11*
X88455500Y-238379000D03*
X80835500Y-233299000D03*
X88455500Y-235839000D03*
X80835500Y-235839000D03*
X88455500Y-233299000D03*
X80835500Y-238379000D03*
X88455500Y-230759000D03*
G04 #@! TD*
D12*
G04 #@! TO.C,C19*
X102576000Y-55880000D03*
X100076000Y-55880000D03*
G04 #@! TD*
G04 #@! TO.C,C21*
X79756000Y-18542000D03*
X77256000Y-18542000D03*
G04 #@! TD*
D13*
G04 #@! TO.C,R14*
X69596000Y-29464000D03*
D14*
X77216000Y-29464000D03*
G04 #@! TD*
D13*
G04 #@! TO.C,R13*
X69596000Y-26416000D03*
D14*
X77216000Y-26416000D03*
G04 #@! TD*
D13*
G04 #@! TO.C,R25*
X69596000Y-32512000D03*
D14*
X77216000Y-32512000D03*
G04 #@! TD*
D15*
G04 #@! TO.C,J3*
X60960000Y-24130000D03*
D16*
X58420000Y-24130000D03*
X55880000Y-24130000D03*
X53340000Y-24130000D03*
G04 #@! TD*
D13*
G04 #@! TO.C,10K1*
X157988000Y-31750000D03*
D14*
X157988000Y-24130000D03*
G04 #@! TD*
D10*
G04 #@! TO.C,C1*
X60960000Y-16510000D03*
D12*
X63460000Y-16510000D03*
G04 #@! TD*
G04 #@! TO.C,C2*
X53380000Y-16510000D03*
D10*
X55880000Y-16510000D03*
G04 #@! TD*
D12*
G04 #@! TO.C,C3*
X76200000Y-125222000D03*
X76200000Y-122722000D03*
G04 #@! TD*
G04 #@! TO.C,C4*
X75946000Y-161671000D03*
X75946000Y-164171000D03*
G04 #@! TD*
G04 #@! TO.C,C5*
X76200000Y-117348000D03*
X76200000Y-119848000D03*
G04 #@! TD*
G04 #@! TO.C,C6*
X75819000Y-157988000D03*
X75819000Y-155488000D03*
G04 #@! TD*
G04 #@! TO.C,C7*
X69636000Y-41656000D03*
X72136000Y-41656000D03*
G04 #@! TD*
G04 #@! TO.C,C8*
X74250000Y-79500000D03*
X71750000Y-79500000D03*
G04 #@! TD*
G04 #@! TO.C,C9*
X77470000Y-50038000D03*
X74970000Y-50038000D03*
G04 #@! TD*
G04 #@! TO.C,C10*
X79208000Y-89662000D03*
X76708000Y-89662000D03*
G04 #@! TD*
G04 #@! TO.C,C11*
X73700000Y-208280000D03*
X76200000Y-208280000D03*
G04 #@! TD*
G04 #@! TO.C,C12*
X76200000Y-247650000D03*
X73700000Y-247650000D03*
G04 #@! TD*
G04 #@! TO.C,C13*
X71080000Y-199390000D03*
X68580000Y-199390000D03*
G04 #@! TD*
G04 #@! TO.C,C14*
X68747000Y-237236000D03*
X71247000Y-237236000D03*
G04 #@! TD*
G04 #@! TO.C,C15*
X87122000Y-105410000D03*
X84622000Y-105410000D03*
G04 #@! TD*
G04 #@! TO.C,C16*
X88479000Y-145034000D03*
X85979000Y-145034000D03*
G04 #@! TD*
G04 #@! TO.C,C17*
X95718000Y-105410000D03*
X93218000Y-105410000D03*
G04 #@! TD*
G04 #@! TO.C,C18*
X96052000Y-145034000D03*
X98552000Y-145034000D03*
G04 #@! TD*
G04 #@! TO.C,C20*
X101346000Y-92456000D03*
X98846000Y-92456000D03*
G04 #@! TD*
G04 #@! TO.C,C22*
X82590000Y-62484000D03*
X85090000Y-62484000D03*
G04 #@! TD*
G04 #@! TO.C,C23*
X86360000Y-210820000D03*
X88860000Y-210820000D03*
G04 #@! TD*
G04 #@! TO.C,C24*
X88646000Y-247269000D03*
X86146000Y-247269000D03*
G04 #@! TD*
G04 #@! TO.C,C25*
X75732000Y-181991000D03*
X78232000Y-181991000D03*
G04 #@! TD*
G04 #@! TO.C,C26*
X78018000Y-222758000D03*
X80518000Y-222758000D03*
G04 #@! TD*
G04 #@! TO.C,C27*
X124714000Y-200954000D03*
X124714000Y-203454000D03*
G04 #@! TD*
G04 #@! TO.C,C28*
X135382000Y-245999000D03*
X135382000Y-248499000D03*
G04 #@! TD*
G04 #@! TO.C,C29*
X124714000Y-197826000D03*
X124714000Y-195326000D03*
G04 #@! TD*
G04 #@! TO.C,C30*
X135382000Y-239903000D03*
X135382000Y-242403000D03*
G04 #@! TD*
G04 #@! TO.C,C31*
X135803000Y-182626000D03*
X138303000Y-182626000D03*
G04 #@! TD*
G04 #@! TO.C,C32*
X144058000Y-224917000D03*
X146558000Y-224917000D03*
G04 #@! TD*
G04 #@! TO.C,C33*
X142788000Y-182626000D03*
X145288000Y-182626000D03*
G04 #@! TD*
G04 #@! TO.C,C34*
X153543000Y-224917000D03*
X151043000Y-224917000D03*
G04 #@! TD*
G04 #@! TO.C,C35*
X162814000Y-76962000D03*
X162814000Y-79462000D03*
G04 #@! TD*
G04 #@! TO.C,C36*
X162814000Y-89916000D03*
X162814000Y-92416000D03*
G04 #@! TD*
D17*
G04 #@! TO.C,C37*
X181610000Y-50292000D03*
D18*
X186610000Y-50292000D03*
G04 #@! TD*
G04 #@! TO.C,C38*
X186610000Y-36322000D03*
D17*
X181610000Y-36322000D03*
G04 #@! TD*
D19*
G04 #@! TO.C,J1*
X27614000Y-40640000D03*
D20*
X32620000Y-35640000D03*
X32620000Y-45640000D03*
X32620000Y-38140000D03*
X32620000Y-43140000D03*
G04 #@! TD*
G04 #@! TO.C,J2*
X195654000Y-37632000D03*
X195654000Y-42632000D03*
X195654000Y-35132000D03*
X195654000Y-45132000D03*
D19*
X200660000Y-40132000D03*
G04 #@! TD*
D13*
G04 #@! TO.C,R1*
X69850000Y-46990000D03*
D14*
X77470000Y-46990000D03*
G04 #@! TD*
D13*
G04 #@! TO.C,R2*
X71500000Y-86250000D03*
D14*
X79120000Y-86250000D03*
G04 #@! TD*
D13*
G04 #@! TO.C,R3*
X68580000Y-202057000D03*
D14*
X76200000Y-202057000D03*
G04 #@! TD*
G04 #@! TO.C,R4*
X76200000Y-240030000D03*
D13*
X68580000Y-240030000D03*
G04 #@! TD*
G04 #@! TO.C,R5*
X77470000Y-44450000D03*
D14*
X69850000Y-44450000D03*
G04 #@! TD*
D13*
G04 #@! TO.C,R6*
X79250000Y-83250000D03*
D14*
X71630000Y-83250000D03*
G04 #@! TD*
G04 #@! TO.C,R7*
X68580000Y-204470000D03*
D13*
X76200000Y-204470000D03*
G04 #@! TD*
G04 #@! TO.C,R8*
X76200000Y-242570000D03*
D14*
X68580000Y-242570000D03*
G04 #@! TD*
G04 #@! TO.C,R9*
X71120000Y-119126000D03*
D13*
X63500000Y-119126000D03*
G04 #@! TD*
D14*
G04 #@! TO.C,R10*
X71501000Y-153416000D03*
D13*
X63881000Y-153416000D03*
G04 #@! TD*
D14*
G04 #@! TO.C,R11*
X71120000Y-122428000D03*
D13*
X63500000Y-122428000D03*
G04 #@! TD*
D14*
G04 #@! TO.C,R12*
X71755000Y-156718000D03*
D13*
X64135000Y-156718000D03*
G04 #@! TD*
G04 #@! TO.C,R15*
X70866000Y-73152000D03*
D14*
X78486000Y-73152000D03*
G04 #@! TD*
G04 #@! TO.C,R16*
X78740000Y-76200000D03*
D13*
X71120000Y-76200000D03*
G04 #@! TD*
D14*
G04 #@! TO.C,R17*
X66548000Y-104648000D03*
D13*
X66548000Y-112268000D03*
G04 #@! TD*
G04 #@! TO.C,R18*
X69596000Y-112268000D03*
D14*
X69596000Y-104648000D03*
G04 #@! TD*
G04 #@! TO.C,R19*
X71247000Y-135763000D03*
D13*
X71247000Y-143383000D03*
G04 #@! TD*
G04 #@! TO.C,R20*
X74041000Y-143383000D03*
D14*
X74041000Y-135763000D03*
G04 #@! TD*
G04 #@! TO.C,R21*
X72390000Y-191770000D03*
D13*
X64770000Y-191770000D03*
G04 #@! TD*
G04 #@! TO.C,R22*
X72390000Y-194310000D03*
D14*
X64770000Y-194310000D03*
G04 #@! TD*
D13*
G04 #@! TO.C,R23*
X74168000Y-229616000D03*
D14*
X66548000Y-229616000D03*
G04 #@! TD*
G04 #@! TO.C,R24*
X74168000Y-231775000D03*
D13*
X66548000Y-231775000D03*
G04 #@! TD*
D14*
G04 #@! TO.C,R26*
X78486000Y-67310000D03*
D13*
X70866000Y-67310000D03*
G04 #@! TD*
G04 #@! TO.C,R27*
X72390000Y-189230000D03*
D14*
X64770000Y-189230000D03*
G04 #@! TD*
G04 #@! TO.C,R28*
X74168000Y-222758000D03*
D13*
X66548000Y-222758000D03*
G04 #@! TD*
G04 #@! TO.C,R29*
X87376000Y-55880000D03*
D14*
X94996000Y-55880000D03*
G04 #@! TD*
D13*
G04 #@! TO.C,R30*
X86868000Y-92456000D03*
D14*
X94488000Y-92456000D03*
G04 #@! TD*
G04 #@! TO.C,R31*
X88900000Y-214630000D03*
D13*
X81280000Y-214630000D03*
G04 #@! TD*
G04 #@! TO.C,R32*
X81407000Y-250190000D03*
D14*
X89027000Y-250190000D03*
G04 #@! TD*
D13*
G04 #@! TO.C,R33*
X80264000Y-129286000D03*
D14*
X87884000Y-129286000D03*
G04 #@! TD*
G04 #@! TO.C,R34*
X88646000Y-164846000D03*
D13*
X81026000Y-164846000D03*
G04 #@! TD*
G04 #@! TO.C,R35*
X93980000Y-114046000D03*
D14*
X101600000Y-114046000D03*
G04 #@! TD*
D13*
G04 #@! TO.C,R36*
X93726000Y-152273000D03*
D14*
X101346000Y-152273000D03*
G04 #@! TD*
G04 #@! TO.C,R37*
X100330000Y-37846000D03*
D13*
X92710000Y-37846000D03*
G04 #@! TD*
G04 #@! TO.C,R38*
X92710000Y-40640000D03*
D14*
X100330000Y-40640000D03*
G04 #@! TD*
G04 #@! TO.C,R39*
X100076000Y-43688000D03*
D13*
X92456000Y-43688000D03*
G04 #@! TD*
G04 #@! TO.C,R40*
X97028000Y-79502000D03*
D14*
X104648000Y-79502000D03*
G04 #@! TD*
G04 #@! TO.C,R41*
X104648000Y-82550000D03*
D13*
X97028000Y-82550000D03*
G04 #@! TD*
G04 #@! TO.C,R42*
X97028000Y-85344000D03*
D14*
X104648000Y-85344000D03*
G04 #@! TD*
G04 #@! TO.C,R43*
X93980000Y-117094000D03*
D13*
X101600000Y-117094000D03*
G04 #@! TD*
D14*
G04 #@! TO.C,R44*
X94234000Y-120142000D03*
D13*
X101854000Y-120142000D03*
G04 #@! TD*
D14*
G04 #@! TO.C,R45*
X80264000Y-132842000D03*
D13*
X87884000Y-132842000D03*
G04 #@! TD*
D14*
G04 #@! TO.C,R46*
X93853000Y-155702000D03*
D13*
X101473000Y-155702000D03*
G04 #@! TD*
D14*
G04 #@! TO.C,R47*
X93599000Y-159512000D03*
D13*
X101219000Y-159512000D03*
G04 #@! TD*
G04 #@! TO.C,R48*
X88646000Y-167767000D03*
D14*
X81026000Y-167767000D03*
G04 #@! TD*
G04 #@! TO.C,R49*
X101600000Y-194310000D03*
D13*
X93980000Y-194310000D03*
G04 #@! TD*
G04 #@! TO.C,R50*
X93980000Y-196850000D03*
D14*
X101600000Y-196850000D03*
G04 #@! TD*
G04 #@! TO.C,R51*
X101600000Y-199390000D03*
D13*
X93980000Y-199390000D03*
G04 #@! TD*
G04 #@! TO.C,R52*
X93980000Y-239649000D03*
D14*
X101600000Y-239649000D03*
G04 #@! TD*
G04 #@! TO.C,R53*
X101473000Y-237109000D03*
D13*
X93853000Y-237109000D03*
G04 #@! TD*
G04 #@! TO.C,R54*
X93853000Y-234442000D03*
D14*
X101473000Y-234442000D03*
G04 #@! TD*
D13*
G04 #@! TO.C,R55*
X113284000Y-195326000D03*
D14*
X120904000Y-195326000D03*
G04 #@! TD*
G04 #@! TO.C,R56*
X132080000Y-239141000D03*
D13*
X124460000Y-239141000D03*
G04 #@! TD*
G04 #@! TO.C,R57*
X113284000Y-192786000D03*
D14*
X120904000Y-192786000D03*
G04 #@! TD*
G04 #@! TO.C,R58*
X131953000Y-236601000D03*
D13*
X124333000Y-236601000D03*
G04 #@! TD*
D14*
G04 #@! TO.C,R59*
X120006335Y-182406726D03*
D13*
X120006335Y-174786726D03*
G04 #@! TD*
G04 #@! TO.C,R60*
X122809000Y-182499000D03*
D14*
X122809000Y-174879000D03*
G04 #@! TD*
G04 #@! TO.C,R61*
X132080000Y-221742000D03*
D13*
X132080000Y-229362000D03*
G04 #@! TD*
G04 #@! TO.C,R62*
X129413000Y-221742000D03*
D14*
X129413000Y-229362000D03*
G04 #@! TD*
G04 #@! TO.C,R63*
X120269000Y-24765000D03*
D13*
X120269000Y-32385000D03*
G04 #@! TD*
G04 #@! TO.C,R64*
X141224000Y-31750000D03*
D14*
X141224000Y-24130000D03*
G04 #@! TD*
G04 #@! TO.C,R65*
X155448000Y-24130000D03*
D13*
X155448000Y-31750000D03*
G04 #@! TD*
D14*
G04 #@! TO.C,R66*
X138176000Y-204978000D03*
D13*
X130556000Y-204978000D03*
G04 #@! TD*
G04 #@! TO.C,R67*
X142875000Y-249301000D03*
D14*
X150495000Y-249301000D03*
G04 #@! TD*
G04 #@! TO.C,R68*
X143002000Y-189230000D03*
D13*
X150622000Y-189230000D03*
G04 #@! TD*
G04 #@! TO.C,R69*
X153416000Y-235585000D03*
D14*
X161036000Y-235585000D03*
G04 #@! TD*
D13*
G04 #@! TO.C,R70*
X122936000Y-32258000D03*
D14*
X122936000Y-24638000D03*
G04 #@! TD*
G04 #@! TO.C,R71*
X138684000Y-24130000D03*
D13*
X138684000Y-31750000D03*
G04 #@! TD*
G04 #@! TO.C,R73*
X151384000Y-194310000D03*
D14*
X143764000Y-194310000D03*
G04 #@! TD*
G04 #@! TO.C,R74*
X143764000Y-196850000D03*
D13*
X151384000Y-196850000D03*
G04 #@! TD*
G04 #@! TO.C,R75*
X138176000Y-207518000D03*
D14*
X130556000Y-207518000D03*
G04 #@! TD*
G04 #@! TO.C,R76*
X143002000Y-251714000D03*
D13*
X150622000Y-251714000D03*
G04 #@! TD*
G04 #@! TO.C,R77*
X153670000Y-246634000D03*
D14*
X161290000Y-246634000D03*
G04 #@! TD*
G04 #@! TO.C,R78*
X161290000Y-244094000D03*
D13*
X153670000Y-244094000D03*
G04 #@! TD*
D14*
G04 #@! TO.C,R79*
X162814000Y-72898000D03*
D13*
X155194000Y-72898000D03*
G04 #@! TD*
D14*
G04 #@! TO.C,R80*
X162814000Y-86868000D03*
D13*
X155194000Y-86868000D03*
G04 #@! TD*
D21*
G04 #@! TO.C,RV1*
X117936000Y-15113000D03*
X120436000Y-15113000D03*
X122936000Y-15113000D03*
X117936000Y-17613000D03*
X120436000Y-17613000D03*
X122936000Y-17613000D03*
G04 #@! TD*
G04 #@! TO.C,RV2*
X142240000Y-17740000D03*
X139740000Y-17740000D03*
X137240000Y-17740000D03*
X142240000Y-15240000D03*
X139740000Y-15240000D03*
X137240000Y-15240000D03*
G04 #@! TD*
G04 #@! TO.C,RV3*
X175006000Y-17740000D03*
X172506000Y-17740000D03*
X170006000Y-17740000D03*
X175006000Y-15240000D03*
X172506000Y-15240000D03*
X170006000Y-15240000D03*
G04 #@! TD*
G04 #@! TO.C,RV4*
X154258000Y-15240000D03*
X156758000Y-15240000D03*
X159258000Y-15240000D03*
X154258000Y-17740000D03*
X156758000Y-17740000D03*
X159258000Y-17740000D03*
G04 #@! TD*
D10*
G04 #@! TO.C,U1*
X81280000Y-35560000D03*
D11*
X88900000Y-43180000D03*
X81280000Y-38100000D03*
X88900000Y-40640000D03*
X81280000Y-40640000D03*
X88900000Y-38100000D03*
X81280000Y-43180000D03*
X88900000Y-35560000D03*
G04 #@! TD*
D10*
G04 #@! TO.C,U2*
X83248500Y-72326500D03*
D11*
X90868500Y-79946500D03*
X83248500Y-74866500D03*
X90868500Y-77406500D03*
X83248500Y-77406500D03*
X90868500Y-74866500D03*
X83248500Y-79946500D03*
X90868500Y-72326500D03*
G04 #@! TD*
G04 #@! TO.C,U3*
X88201500Y-111379000D03*
X80581500Y-118999000D03*
X88201500Y-113919000D03*
X80581500Y-116459000D03*
X88201500Y-116459000D03*
X80581500Y-113919000D03*
X88201500Y-118999000D03*
D10*
X80581500Y-111379000D03*
G04 #@! TD*
G04 #@! TO.C,U4*
X81788000Y-150622000D03*
D11*
X89408000Y-158242000D03*
X81788000Y-153162000D03*
X89408000Y-155702000D03*
X81788000Y-155702000D03*
X89408000Y-153162000D03*
X81788000Y-158242000D03*
X89408000Y-150622000D03*
G04 #@! TD*
G04 #@! TO.C,U5*
X88455500Y-190119000D03*
X80835500Y-197739000D03*
X88455500Y-192659000D03*
X80835500Y-195199000D03*
X88455500Y-195199000D03*
X80835500Y-192659000D03*
X88455500Y-197739000D03*
D10*
X80835500Y-190119000D03*
G04 #@! TD*
D11*
G04 #@! TO.C,U7*
X137985500Y-188849000D03*
X130365500Y-196469000D03*
X137985500Y-191389000D03*
X130365500Y-193929000D03*
X137985500Y-193929000D03*
X130365500Y-191389000D03*
X137985500Y-196469000D03*
D10*
X130365500Y-188849000D03*
G04 #@! TD*
D11*
G04 #@! TO.C,U8*
X148145500Y-233299000D03*
X140525500Y-240919000D03*
X148145500Y-235839000D03*
X140525500Y-238379000D03*
X148145500Y-238379000D03*
X140525500Y-235839000D03*
X148145500Y-240919000D03*
D10*
X140525500Y-233299000D03*
G04 #@! TD*
G04 #@! TO.C,U9*
X143002000Y-65278000D03*
D11*
X150622000Y-72898000D03*
X143002000Y-67818000D03*
X150622000Y-70358000D03*
X143002000Y-70358000D03*
X150622000Y-67818000D03*
X143002000Y-72898000D03*
X150622000Y-65278000D03*
G04 #@! TD*
G04 #@! TO.C,U10*
X150622000Y-79248000D03*
X143002000Y-86868000D03*
X150622000Y-81788000D03*
X143002000Y-84328000D03*
X150622000Y-84328000D03*
X143002000Y-81788000D03*
X150622000Y-86868000D03*
D10*
X143002000Y-79248000D03*
G04 #@! TD*
M02*
