G04 #@! TF.GenerationSoftware,KiCad,Pcbnew,5.0.0-rc3-6a2723a~65~ubuntu16.04.1*
G04 #@! TF.CreationDate,2018-07-19T22:29:32+03:00*
G04 #@! TF.ProjectId,test5,74657374352E6B696361645F70636200,rev?*
G04 #@! TF.SameCoordinates,Original*
G04 #@! TF.FileFunction,Copper,L2,Bot,Signal*
G04 #@! TF.FilePolarity,Positive*
%FSLAX46Y46*%
G04 Gerber Fmt 4.6, Leading zero omitted, Abs format (unit mm)*
G04 Created by KiCad (PCBNEW 5.0.0-rc3-6a2723a~65~ubuntu16.04.1) date Thu Jul 19 22:29:32 2018*
%MOMM*%
%LPD*%
G01*
G04 APERTURE LIST*
G04 #@! TA.AperFunction,ComponentPad*
%ADD10O,1.400000X1.400000*%
G04 #@! TD*
G04 #@! TA.AperFunction,ComponentPad*
%ADD11C,1.400000*%
G04 #@! TD*
G04 #@! TA.AperFunction,ComponentPad*
%ADD12C,1.600000*%
G04 #@! TD*
G04 #@! TA.AperFunction,ComponentPad*
%ADD13R,1.600000X1.600000*%
G04 #@! TD*
G04 #@! TA.AperFunction,ComponentPad*
%ADD14O,1.600000X1.600000*%
G04 #@! TD*
G04 #@! TA.AperFunction,ComponentPad*
%ADD15R,1.700000X1.700000*%
G04 #@! TD*
G04 #@! TA.AperFunction,ComponentPad*
%ADD16O,1.700000X1.700000*%
G04 #@! TD*
G04 #@! TA.AperFunction,ComponentPad*
%ADD17R,2.000000X2.000000*%
G04 #@! TD*
G04 #@! TA.AperFunction,ComponentPad*
%ADD18C,2.000000*%
G04 #@! TD*
G04 #@! TA.AperFunction,ComponentPad*
%ADD19R,2.500000X3.500000*%
G04 #@! TD*
G04 #@! TA.AperFunction,ComponentPad*
%ADD20O,3.500000X1.750000*%
G04 #@! TD*
G04 #@! TA.AperFunction,ComponentPad*
%ADD21C,1.800000*%
G04 #@! TD*
G04 #@! TA.AperFunction,ViaPad*
%ADD22C,0.800000*%
G04 #@! TD*
G04 #@! TA.AperFunction,ViaPad*
%ADD23C,1.000000*%
G04 #@! TD*
G04 #@! TA.AperFunction,ViaPad*
%ADD24C,0.700000*%
G04 #@! TD*
G04 #@! TA.AperFunction,Conductor*
%ADD25C,0.800000*%
G04 #@! TD*
G04 #@! TA.AperFunction,Conductor*
%ADD26C,0.500000*%
G04 #@! TD*
G04 APERTURE END LIST*
D10*
G04 #@! TO.P,R80,2*
G04 #@! TO.N,Net-(C36-Pad1)*
X163068000Y-73152000D03*
D11*
G04 #@! TO.P,R80,1*
G04 #@! TO.N,Net-(C38-Pad1)*
X155448000Y-73152000D03*
G04 #@! TD*
D12*
G04 #@! TO.P,C36,1*
G04 #@! TO.N,Net-(C36-Pad1)*
X165862000Y-73152000D03*
G04 #@! TO.P,C36,2*
G04 #@! TO.N,GND*
X165862000Y-75652000D03*
G04 #@! TD*
D13*
G04 #@! TO.P,U6,1*
G04 #@! TO.N,Net-(C14-Pad1)*
X119443500Y-142113000D03*
D14*
G04 #@! TO.P,U6,5*
G04 #@! TO.N,Net-(C24-Pad2)*
X127063500Y-149733000D03*
G04 #@! TO.P,U6,2*
G04 #@! TO.N,Net-(R23-Pad2)*
X119443500Y-144653000D03*
G04 #@! TO.P,U6,6*
G04 #@! TO.N,Net-(R53-Pad2)*
X127063500Y-147193000D03*
G04 #@! TO.P,U6,3*
G04 #@! TO.N,Net-(C12-Pad1)*
X119443500Y-147193000D03*
G04 #@! TO.P,U6,7*
G04 #@! TO.N,Net-(C26-Pad1)*
X127063500Y-144653000D03*
G04 #@! TO.P,U6,4*
G04 #@! TO.N,Vcc-*
X119443500Y-149733000D03*
G04 #@! TO.P,U6,8*
G04 #@! TO.N,Vcc+*
X127063500Y-142113000D03*
G04 #@! TD*
D12*
G04 #@! TO.P,C19,1*
G04 #@! TO.N,GND*
X102576000Y-55880000D03*
G04 #@! TO.P,C19,2*
G04 #@! TO.N,Net-(C19-Pad2)*
X100076000Y-55880000D03*
G04 #@! TD*
G04 #@! TO.P,C21,1*
G04 #@! TO.N,Net-(C21-Pad1)*
X79756000Y-18542000D03*
G04 #@! TO.P,C21,2*
G04 #@! TO.N,Net-(C21-Pad2)*
X77256000Y-18542000D03*
G04 #@! TD*
D11*
G04 #@! TO.P,R14,1*
G04 #@! TO.N,GND*
X69596000Y-29464000D03*
D10*
G04 #@! TO.P,R14,2*
G04 #@! TO.N,Net-(R13-Pad2)*
X77216000Y-29464000D03*
G04 #@! TD*
D11*
G04 #@! TO.P,R13,1*
G04 #@! TO.N,Net-(C9-Pad1)*
X69596000Y-26416000D03*
D10*
G04 #@! TO.P,R13,2*
G04 #@! TO.N,Net-(R13-Pad2)*
X77216000Y-26416000D03*
G04 #@! TD*
D11*
G04 #@! TO.P,R25,1*
G04 #@! TO.N,Net-(C9-Pad1)*
X69596000Y-32512000D03*
D10*
G04 #@! TO.P,R25,2*
G04 #@! TO.N,Net-(C21-Pad2)*
X77216000Y-32512000D03*
G04 #@! TD*
D15*
G04 #@! TO.P,J3,1*
G04 #@! TO.N,Vcc+*
X60960000Y-24130000D03*
D16*
G04 #@! TO.P,J3,2*
G04 #@! TO.N,GND*
X58420000Y-24130000D03*
G04 #@! TO.P,J3,3*
X55880000Y-24130000D03*
G04 #@! TO.P,J3,4*
G04 #@! TO.N,Vcc-*
X53340000Y-24130000D03*
G04 #@! TD*
D11*
G04 #@! TO.P,10K1,1*
G04 #@! TO.N,Net-(10K1-Pad1)*
X157988000Y-31750000D03*
D10*
G04 #@! TO.P,10K1,2*
G04 #@! TO.N,Net-(10K1-Pad2)*
X157988000Y-24130000D03*
G04 #@! TD*
D13*
G04 #@! TO.P,C1,1*
G04 #@! TO.N,Vcc+*
X60960000Y-16510000D03*
D12*
G04 #@! TO.P,C1,2*
G04 #@! TO.N,GND*
X63460000Y-16510000D03*
G04 #@! TD*
G04 #@! TO.P,C2,2*
G04 #@! TO.N,Vcc-*
X53380000Y-16510000D03*
D13*
G04 #@! TO.P,C2,1*
G04 #@! TO.N,GND*
X55880000Y-16510000D03*
G04 #@! TD*
D12*
G04 #@! TO.P,C3,2*
G04 #@! TO.N,IN_RIGHT*
X76200000Y-125222000D03*
G04 #@! TO.P,C3,1*
G04 #@! TO.N,Net-(C3-Pad1)*
X76200000Y-122722000D03*
G04 #@! TD*
G04 #@! TO.P,C4,1*
G04 #@! TO.N,Net-(C4-Pad1)*
X75946000Y-161671000D03*
G04 #@! TO.P,C4,2*
G04 #@! TO.N,IN_LEFT*
X75946000Y-164171000D03*
G04 #@! TD*
G04 #@! TO.P,C5,1*
G04 #@! TO.N,Net-(C5-Pad1)*
X76200000Y-117348000D03*
G04 #@! TO.P,C5,2*
G04 #@! TO.N,Net-(C3-Pad1)*
X76200000Y-119848000D03*
G04 #@! TD*
G04 #@! TO.P,C6,2*
G04 #@! TO.N,Net-(C4-Pad1)*
X75819000Y-157988000D03*
G04 #@! TO.P,C6,1*
G04 #@! TO.N,Net-(C6-Pad1)*
X75819000Y-155488000D03*
G04 #@! TD*
G04 #@! TO.P,C7,2*
G04 #@! TO.N,GND*
X69636000Y-41656000D03*
G04 #@! TO.P,C7,1*
G04 #@! TO.N,Net-(C7-Pad1)*
X72136000Y-41656000D03*
G04 #@! TD*
G04 #@! TO.P,C8,1*
G04 #@! TO.N,Net-(C8-Pad1)*
X74250000Y-79500000D03*
G04 #@! TO.P,C8,2*
G04 #@! TO.N,GND*
X71750000Y-79500000D03*
G04 #@! TD*
G04 #@! TO.P,C9,2*
G04 #@! TO.N,Net-(C9-Pad2)*
X77470000Y-50038000D03*
G04 #@! TO.P,C9,1*
G04 #@! TO.N,Net-(C9-Pad1)*
X74970000Y-50038000D03*
G04 #@! TD*
G04 #@! TO.P,C10,2*
G04 #@! TO.N,Net-(C10-Pad2)*
X79208000Y-89662000D03*
G04 #@! TO.P,C10,1*
G04 #@! TO.N,Net-(C10-Pad1)*
X76708000Y-89662000D03*
G04 #@! TD*
G04 #@! TO.P,C11,2*
G04 #@! TO.N,GND*
X112308000Y-119634000D03*
G04 #@! TO.P,C11,1*
G04 #@! TO.N,Net-(C11-Pad1)*
X114808000Y-119634000D03*
G04 #@! TD*
G04 #@! TO.P,C12,1*
G04 #@! TO.N,Net-(C12-Pad1)*
X114808000Y-159004000D03*
G04 #@! TO.P,C12,2*
G04 #@! TO.N,GND*
X112308000Y-159004000D03*
G04 #@! TD*
G04 #@! TO.P,C13,1*
G04 #@! TO.N,Net-(C13-Pad1)*
X109688000Y-110744000D03*
G04 #@! TO.P,C13,2*
G04 #@! TO.N,Net-(C13-Pad2)*
X107188000Y-110744000D03*
G04 #@! TD*
G04 #@! TO.P,C14,2*
G04 #@! TO.N,Net-(C14-Pad2)*
X107355000Y-148590000D03*
G04 #@! TO.P,C14,1*
G04 #@! TO.N,Net-(C14-Pad1)*
X109855000Y-148590000D03*
G04 #@! TD*
G04 #@! TO.P,C15,1*
G04 #@! TO.N,Net-(C15-Pad1)*
X87122000Y-99314000D03*
G04 #@! TO.P,C15,2*
G04 #@! TO.N,Net-(C15-Pad2)*
X84622000Y-99314000D03*
G04 #@! TD*
G04 #@! TO.P,C16,1*
G04 #@! TO.N,Net-(C16-Pad1)*
X88479000Y-145034000D03*
G04 #@! TO.P,C16,2*
G04 #@! TO.N,Net-(C16-Pad2)*
X85979000Y-145034000D03*
G04 #@! TD*
G04 #@! TO.P,C17,1*
G04 #@! TO.N,Net-(C17-Pad1)*
X95758000Y-99314000D03*
G04 #@! TO.P,C17,2*
G04 #@! TO.N,Net-(C15-Pad1)*
X93258000Y-99314000D03*
G04 #@! TD*
G04 #@! TO.P,C18,2*
G04 #@! TO.N,Net-(C16-Pad1)*
X96052000Y-145034000D03*
G04 #@! TO.P,C18,1*
G04 #@! TO.N,Net-(C18-Pad1)*
X98552000Y-145034000D03*
G04 #@! TD*
G04 #@! TO.P,C20,1*
G04 #@! TO.N,GND*
X101346000Y-92456000D03*
G04 #@! TO.P,C20,2*
G04 #@! TO.N,Net-(C20-Pad2)*
X98846000Y-92456000D03*
G04 #@! TD*
G04 #@! TO.P,C22,2*
G04 #@! TO.N,Net-(C22-Pad2)*
X82590000Y-62484000D03*
G04 #@! TO.P,C22,1*
G04 #@! TO.N,Net-(C22-Pad1)*
X85090000Y-62484000D03*
G04 #@! TD*
G04 #@! TO.P,C23,1*
G04 #@! TO.N,GND*
X124968000Y-122174000D03*
G04 #@! TO.P,C23,2*
G04 #@! TO.N,Net-(C23-Pad2)*
X127468000Y-122174000D03*
G04 #@! TD*
G04 #@! TO.P,C24,2*
G04 #@! TO.N,Net-(C24-Pad2)*
X127254000Y-158623000D03*
G04 #@! TO.P,C24,1*
G04 #@! TO.N,GND*
X124754000Y-158623000D03*
G04 #@! TD*
G04 #@! TO.P,C25,2*
G04 #@! TO.N,Net-(C25-Pad2)*
X114340000Y-93345000D03*
G04 #@! TO.P,C25,1*
G04 #@! TO.N,Net-(C25-Pad1)*
X116840000Y-93345000D03*
G04 #@! TD*
G04 #@! TO.P,C26,2*
G04 #@! TO.N,Net-(C26-Pad2)*
X116626000Y-134112000D03*
G04 #@! TO.P,C26,1*
G04 #@! TO.N,Net-(C26-Pad1)*
X119126000Y-134112000D03*
G04 #@! TD*
G04 #@! TO.P,C27,1*
G04 #@! TO.N,Net-(C27-Pad1)*
X163322000Y-112308000D03*
G04 #@! TO.P,C27,2*
G04 #@! TO.N,Net-(C25-Pad1)*
X163322000Y-114808000D03*
G04 #@! TD*
G04 #@! TO.P,C28,1*
G04 #@! TO.N,Net-(C28-Pad1)*
X173990000Y-157353000D03*
G04 #@! TO.P,C28,2*
G04 #@! TO.N,Net-(C26-Pad1)*
X173990000Y-159853000D03*
G04 #@! TD*
G04 #@! TO.P,C29,2*
G04 #@! TO.N,Net-(C27-Pad1)*
X163322000Y-109180000D03*
G04 #@! TO.P,C29,1*
G04 #@! TO.N,Net-(C29-Pad1)*
X163322000Y-106680000D03*
G04 #@! TD*
G04 #@! TO.P,C30,1*
G04 #@! TO.N,Net-(C30-Pad1)*
X173990000Y-151257000D03*
G04 #@! TO.P,C30,2*
G04 #@! TO.N,Net-(C28-Pad1)*
X173990000Y-153757000D03*
G04 #@! TD*
G04 #@! TO.P,C31,2*
G04 #@! TO.N,Net-(C31-Pad2)*
X174411000Y-93980000D03*
G04 #@! TO.P,C31,1*
G04 #@! TO.N,Net-(C31-Pad1)*
X176911000Y-93980000D03*
G04 #@! TD*
G04 #@! TO.P,C32,2*
G04 #@! TO.N,Net-(C32-Pad2)*
X182666000Y-136271000D03*
G04 #@! TO.P,C32,1*
G04 #@! TO.N,Net-(C32-Pad1)*
X185166000Y-136271000D03*
G04 #@! TD*
G04 #@! TO.P,C33,2*
G04 #@! TO.N,Net-(C31-Pad1)*
X181396000Y-93980000D03*
G04 #@! TO.P,C33,1*
G04 #@! TO.N,Net-(C33-Pad1)*
X183896000Y-93980000D03*
G04 #@! TD*
G04 #@! TO.P,C34,1*
G04 #@! TO.N,Net-(C34-Pad1)*
X192151000Y-136271000D03*
G04 #@! TO.P,C34,2*
G04 #@! TO.N,Net-(C32-Pad1)*
X189651000Y-136271000D03*
G04 #@! TD*
G04 #@! TO.P,C35,1*
G04 #@! TO.N,Net-(C35-Pad1)*
X165608000Y-65318000D03*
G04 #@! TO.P,C35,2*
G04 #@! TO.N,GND*
X165608000Y-67818000D03*
G04 #@! TD*
D17*
G04 #@! TO.P,C37,1*
G04 #@! TO.N,Net-(C37-Pad1)*
X181610000Y-50292000D03*
D18*
G04 #@! TO.P,C37,2*
G04 #@! TO.N,Net-(C37-Pad2)*
X186610000Y-50292000D03*
G04 #@! TD*
G04 #@! TO.P,C38,2*
G04 #@! TO.N,Net-(C38-Pad2)*
X186610000Y-36322000D03*
D17*
G04 #@! TO.P,C38,1*
G04 #@! TO.N,Net-(C38-Pad1)*
X181610000Y-36322000D03*
G04 #@! TD*
D19*
G04 #@! TO.P,J1,1*
G04 #@! TO.N,GND*
X41838000Y-37846000D03*
D20*
G04 #@! TO.P,J1,2*
G04 #@! TO.N,IN_RIGHT*
X46844000Y-32846000D03*
G04 #@! TO.P,J1,3*
G04 #@! TO.N,IN_LEFT*
X46844000Y-42846000D03*
G04 #@! TO.P,J1,4*
G04 #@! TO.N,Net-(J1-Pad4)*
X46844000Y-35346000D03*
G04 #@! TO.P,J1,5*
G04 #@! TO.N,Net-(J1-Pad5)*
X46844000Y-40346000D03*
G04 #@! TD*
G04 #@! TO.P,J2,5*
G04 #@! TO.N,Net-(J2-Pad5)*
X195654000Y-37632000D03*
G04 #@! TO.P,J2,4*
G04 #@! TO.N,Net-(J2-Pad4)*
X195654000Y-42632000D03*
G04 #@! TO.P,J2,3*
G04 #@! TO.N,Net-(C38-Pad2)*
X195654000Y-35132000D03*
G04 #@! TO.P,J2,2*
G04 #@! TO.N,Net-(C37-Pad2)*
X195654000Y-45132000D03*
D19*
G04 #@! TO.P,J2,1*
G04 #@! TO.N,GND*
X200660000Y-40132000D03*
G04 #@! TD*
D11*
G04 #@! TO.P,R1,1*
G04 #@! TO.N,IN_RIGHT*
X69850000Y-46990000D03*
D10*
G04 #@! TO.P,R1,2*
G04 #@! TO.N,Net-(C9-Pad2)*
X77470000Y-46990000D03*
G04 #@! TD*
D11*
G04 #@! TO.P,R2,1*
G04 #@! TO.N,IN_LEFT*
X71500000Y-86250000D03*
D10*
G04 #@! TO.P,R2,2*
G04 #@! TO.N,Net-(C10-Pad2)*
X79120000Y-86250000D03*
G04 #@! TD*
D11*
G04 #@! TO.P,R3,1*
G04 #@! TO.N,IN_RIGHT*
X107188000Y-113411000D03*
D10*
G04 #@! TO.P,R3,2*
G04 #@! TO.N,Net-(C13-Pad2)*
X114808000Y-113411000D03*
G04 #@! TD*
G04 #@! TO.P,R4,2*
G04 #@! TO.N,Net-(C14-Pad2)*
X114808000Y-151384000D03*
D11*
G04 #@! TO.P,R4,1*
G04 #@! TO.N,IN_LEFT*
X107188000Y-151384000D03*
G04 #@! TD*
G04 #@! TO.P,R5,1*
G04 #@! TO.N,Net-(C7-Pad1)*
X77470000Y-44450000D03*
D10*
G04 #@! TO.P,R5,2*
G04 #@! TO.N,Net-(C9-Pad2)*
X69850000Y-44450000D03*
G04 #@! TD*
D11*
G04 #@! TO.P,R6,1*
G04 #@! TO.N,Net-(C8-Pad1)*
X79250000Y-83250000D03*
D10*
G04 #@! TO.P,R6,2*
G04 #@! TO.N,Net-(C10-Pad2)*
X71630000Y-83250000D03*
G04 #@! TD*
G04 #@! TO.P,R7,2*
G04 #@! TO.N,Net-(C13-Pad2)*
X107188000Y-115824000D03*
D11*
G04 #@! TO.P,R7,1*
G04 #@! TO.N,Net-(C11-Pad1)*
X114808000Y-115824000D03*
G04 #@! TD*
G04 #@! TO.P,R8,1*
G04 #@! TO.N,Net-(C12-Pad1)*
X114808000Y-153924000D03*
D10*
G04 #@! TO.P,R8,2*
G04 #@! TO.N,Net-(C14-Pad2)*
X107188000Y-153924000D03*
G04 #@! TD*
G04 #@! TO.P,R9,2*
G04 #@! TO.N,Net-(C5-Pad1)*
X71120000Y-119126000D03*
D11*
G04 #@! TO.P,R9,1*
G04 #@! TO.N,GND*
X63500000Y-119126000D03*
G04 #@! TD*
D10*
G04 #@! TO.P,R10,2*
G04 #@! TO.N,Net-(C6-Pad1)*
X71501000Y-153416000D03*
D11*
G04 #@! TO.P,R10,1*
G04 #@! TO.N,GND*
X63881000Y-153416000D03*
G04 #@! TD*
D10*
G04 #@! TO.P,R11,2*
G04 #@! TO.N,Net-(C3-Pad1)*
X71120000Y-122428000D03*
D11*
G04 #@! TO.P,R11,1*
G04 #@! TO.N,Net-(C15-Pad2)*
X63500000Y-122428000D03*
G04 #@! TD*
D10*
G04 #@! TO.P,R12,2*
G04 #@! TO.N,Net-(C4-Pad1)*
X71755000Y-156718000D03*
D11*
G04 #@! TO.P,R12,1*
G04 #@! TO.N,Net-(C16-Pad2)*
X64135000Y-156718000D03*
G04 #@! TD*
G04 #@! TO.P,R15,1*
G04 #@! TO.N,Net-(C10-Pad1)*
X70866000Y-73152000D03*
D10*
G04 #@! TO.P,R15,2*
G04 #@! TO.N,Net-(R15-Pad2)*
X78486000Y-73152000D03*
G04 #@! TD*
G04 #@! TO.P,R16,2*
G04 #@! TO.N,Net-(R15-Pad2)*
X78740000Y-76200000D03*
D11*
G04 #@! TO.P,R16,1*
G04 #@! TO.N,GND*
X71120000Y-76200000D03*
G04 #@! TD*
D10*
G04 #@! TO.P,R17,2*
G04 #@! TO.N,Net-(R17-Pad2)*
X66548000Y-104648000D03*
D11*
G04 #@! TO.P,R17,1*
G04 #@! TO.N,Net-(C15-Pad2)*
X66548000Y-112268000D03*
G04 #@! TD*
G04 #@! TO.P,R18,1*
G04 #@! TO.N,GND*
X69596000Y-112268000D03*
D10*
G04 #@! TO.P,R18,2*
G04 #@! TO.N,Net-(R17-Pad2)*
X69596000Y-104648000D03*
G04 #@! TD*
G04 #@! TO.P,R19,2*
G04 #@! TO.N,Net-(R19-Pad2)*
X71247000Y-135763000D03*
D11*
G04 #@! TO.P,R19,1*
G04 #@! TO.N,Net-(C16-Pad2)*
X71247000Y-143383000D03*
G04 #@! TD*
G04 #@! TO.P,R20,1*
G04 #@! TO.N,GND*
X74041000Y-143383000D03*
D10*
G04 #@! TO.P,R20,2*
G04 #@! TO.N,Net-(R19-Pad2)*
X74041000Y-135763000D03*
G04 #@! TD*
G04 #@! TO.P,R21,2*
G04 #@! TO.N,Net-(R21-Pad2)*
X110998000Y-103124000D03*
D11*
G04 #@! TO.P,R21,1*
G04 #@! TO.N,Net-(C13-Pad1)*
X103378000Y-103124000D03*
G04 #@! TD*
G04 #@! TO.P,R22,1*
G04 #@! TO.N,GND*
X110998000Y-105664000D03*
D10*
G04 #@! TO.P,R22,2*
G04 #@! TO.N,Net-(R21-Pad2)*
X103378000Y-105664000D03*
G04 #@! TD*
D11*
G04 #@! TO.P,R23,1*
G04 #@! TO.N,Net-(C14-Pad1)*
X112776000Y-140970000D03*
D10*
G04 #@! TO.P,R23,2*
G04 #@! TO.N,Net-(R23-Pad2)*
X105156000Y-140970000D03*
G04 #@! TD*
G04 #@! TO.P,R24,2*
G04 #@! TO.N,Net-(R23-Pad2)*
X112776000Y-143129000D03*
D11*
G04 #@! TO.P,R24,1*
G04 #@! TO.N,GND*
X105156000Y-143129000D03*
G04 #@! TD*
D10*
G04 #@! TO.P,R26,2*
G04 #@! TO.N,Net-(C22-Pad2)*
X78486000Y-67310000D03*
D11*
G04 #@! TO.P,R26,1*
G04 #@! TO.N,Net-(C10-Pad1)*
X70866000Y-67310000D03*
G04 #@! TD*
G04 #@! TO.P,R27,1*
G04 #@! TO.N,Net-(C13-Pad1)*
X110998000Y-100584000D03*
D10*
G04 #@! TO.P,R27,2*
G04 #@! TO.N,Net-(C25-Pad2)*
X103378000Y-100584000D03*
G04 #@! TD*
G04 #@! TO.P,R28,2*
G04 #@! TO.N,Net-(C26-Pad2)*
X112776000Y-134112000D03*
D11*
G04 #@! TO.P,R28,1*
G04 #@! TO.N,Net-(C14-Pad1)*
X105156000Y-134112000D03*
G04 #@! TD*
G04 #@! TO.P,R29,1*
G04 #@! TO.N,Net-(C21-Pad2)*
X87376000Y-55880000D03*
D10*
G04 #@! TO.P,R29,2*
G04 #@! TO.N,Net-(C19-Pad2)*
X94996000Y-55880000D03*
G04 #@! TD*
D11*
G04 #@! TO.P,R30,1*
G04 #@! TO.N,Net-(C22-Pad2)*
X86868000Y-92456000D03*
D10*
G04 #@! TO.P,R30,2*
G04 #@! TO.N,Net-(C20-Pad2)*
X94488000Y-92456000D03*
G04 #@! TD*
G04 #@! TO.P,R31,2*
G04 #@! TO.N,Net-(C23-Pad2)*
X127508000Y-125984000D03*
D11*
G04 #@! TO.P,R31,1*
G04 #@! TO.N,Net-(C25-Pad2)*
X119888000Y-125984000D03*
G04 #@! TD*
G04 #@! TO.P,R32,1*
G04 #@! TO.N,Net-(C26-Pad2)*
X120015000Y-161544000D03*
D10*
G04 #@! TO.P,R32,2*
G04 #@! TO.N,Net-(C24-Pad2)*
X127635000Y-161544000D03*
G04 #@! TD*
D11*
G04 #@! TO.P,R33,1*
G04 #@! TO.N,GND*
X80264000Y-129286000D03*
D10*
G04 #@! TO.P,R33,2*
G04 #@! TO.N,Net-(C17-Pad1)*
X87884000Y-129286000D03*
G04 #@! TD*
G04 #@! TO.P,R34,2*
G04 #@! TO.N,Net-(C18-Pad1)*
X88646000Y-164846000D03*
D11*
G04 #@! TO.P,R34,1*
G04 #@! TO.N,GND*
X81026000Y-164846000D03*
G04 #@! TD*
G04 #@! TO.P,R35,1*
G04 #@! TO.N,Net-(R35-Pad1)*
X93980000Y-114046000D03*
D10*
G04 #@! TO.P,R35,2*
G04 #@! TO.N,Net-(C15-Pad1)*
X101600000Y-114046000D03*
G04 #@! TD*
D11*
G04 #@! TO.P,R36,1*
G04 #@! TO.N,Net-(R36-Pad1)*
X93726000Y-152273000D03*
D10*
G04 #@! TO.P,R36,2*
G04 #@! TO.N,Net-(C16-Pad1)*
X101346000Y-152273000D03*
G04 #@! TD*
G04 #@! TO.P,R37,2*
G04 #@! TO.N,Net-(R37-Pad2)*
X100330000Y-37846000D03*
D11*
G04 #@! TO.P,R37,1*
G04 #@! TO.N,Net-(C21-Pad1)*
X92710000Y-37846000D03*
G04 #@! TD*
G04 #@! TO.P,R38,1*
G04 #@! TO.N,Net-(R37-Pad2)*
X92710000Y-40640000D03*
D10*
G04 #@! TO.P,R38,2*
G04 #@! TO.N,Net-(R38-Pad2)*
X100330000Y-40640000D03*
G04 #@! TD*
G04 #@! TO.P,R39,2*
G04 #@! TO.N,GND*
X100076000Y-43688000D03*
D11*
G04 #@! TO.P,R39,1*
G04 #@! TO.N,Net-(R38-Pad2)*
X92456000Y-43688000D03*
G04 #@! TD*
G04 #@! TO.P,R40,1*
G04 #@! TO.N,Net-(C22-Pad1)*
X97028000Y-79502000D03*
D10*
G04 #@! TO.P,R40,2*
G04 #@! TO.N,Net-(R40-Pad2)*
X104648000Y-79502000D03*
G04 #@! TD*
G04 #@! TO.P,R41,2*
G04 #@! TO.N,Net-(R41-Pad2)*
X104648000Y-82550000D03*
D11*
G04 #@! TO.P,R41,1*
G04 #@! TO.N,Net-(R40-Pad2)*
X97028000Y-82550000D03*
G04 #@! TD*
G04 #@! TO.P,R42,1*
G04 #@! TO.N,Net-(R41-Pad2)*
X97028000Y-85344000D03*
D10*
G04 #@! TO.P,R42,2*
G04 #@! TO.N,GND*
X104648000Y-85344000D03*
G04 #@! TD*
G04 #@! TO.P,R43,2*
G04 #@! TO.N,Net-(R43-Pad2)*
X93980000Y-117094000D03*
D11*
G04 #@! TO.P,R43,1*
G04 #@! TO.N,Net-(R35-Pad1)*
X101600000Y-117094000D03*
G04 #@! TD*
D10*
G04 #@! TO.P,R44,2*
G04 #@! TO.N,Net-(R44-Pad2)*
X94234000Y-120142000D03*
D11*
G04 #@! TO.P,R44,1*
G04 #@! TO.N,Net-(R43-Pad2)*
X101854000Y-120142000D03*
G04 #@! TD*
D10*
G04 #@! TO.P,R45,2*
G04 #@! TO.N,GND*
X80264000Y-132842000D03*
D11*
G04 #@! TO.P,R45,1*
G04 #@! TO.N,Net-(R44-Pad2)*
X87884000Y-132842000D03*
G04 #@! TD*
D10*
G04 #@! TO.P,R46,2*
G04 #@! TO.N,Net-(R46-Pad2)*
X93853000Y-155702000D03*
D11*
G04 #@! TO.P,R46,1*
G04 #@! TO.N,Net-(R36-Pad1)*
X101473000Y-155702000D03*
G04 #@! TD*
D10*
G04 #@! TO.P,R47,2*
G04 #@! TO.N,Net-(R47-Pad2)*
X93599000Y-159512000D03*
D11*
G04 #@! TO.P,R47,1*
G04 #@! TO.N,Net-(R46-Pad2)*
X101219000Y-159512000D03*
G04 #@! TD*
G04 #@! TO.P,R48,1*
G04 #@! TO.N,Net-(R47-Pad2)*
X88646000Y-167767000D03*
D10*
G04 #@! TO.P,R48,2*
G04 #@! TO.N,GND*
X81026000Y-167767000D03*
G04 #@! TD*
G04 #@! TO.P,R49,2*
G04 #@! TO.N,Net-(R49-Pad2)*
X140208000Y-105664000D03*
D11*
G04 #@! TO.P,R49,1*
G04 #@! TO.N,Net-(C25-Pad1)*
X132588000Y-105664000D03*
G04 #@! TD*
G04 #@! TO.P,R50,1*
G04 #@! TO.N,Net-(R49-Pad2)*
X132588000Y-108204000D03*
D10*
G04 #@! TO.P,R50,2*
G04 #@! TO.N,Net-(R50-Pad2)*
X140208000Y-108204000D03*
G04 #@! TD*
G04 #@! TO.P,R51,2*
G04 #@! TO.N,GND*
X140208000Y-110744000D03*
D11*
G04 #@! TO.P,R51,1*
G04 #@! TO.N,Net-(R50-Pad2)*
X132588000Y-110744000D03*
G04 #@! TD*
G04 #@! TO.P,R52,1*
G04 #@! TO.N,Net-(C26-Pad1)*
X132588000Y-151003000D03*
D10*
G04 #@! TO.P,R52,2*
G04 #@! TO.N,Net-(R52-Pad2)*
X140208000Y-151003000D03*
G04 #@! TD*
G04 #@! TO.P,R53,2*
G04 #@! TO.N,Net-(R53-Pad2)*
X140081000Y-148463000D03*
D11*
G04 #@! TO.P,R53,1*
G04 #@! TO.N,Net-(R52-Pad2)*
X132461000Y-148463000D03*
G04 #@! TD*
G04 #@! TO.P,R54,1*
G04 #@! TO.N,Net-(R53-Pad2)*
X132461000Y-145796000D03*
D10*
G04 #@! TO.P,R54,2*
G04 #@! TO.N,GND*
X140081000Y-145796000D03*
G04 #@! TD*
D11*
G04 #@! TO.P,R55,1*
G04 #@! TO.N,GND*
X151892000Y-106680000D03*
D10*
G04 #@! TO.P,R55,2*
G04 #@! TO.N,Net-(C29-Pad1)*
X159512000Y-106680000D03*
G04 #@! TD*
G04 #@! TO.P,R56,2*
G04 #@! TO.N,Net-(C30-Pad1)*
X170688000Y-150495000D03*
D11*
G04 #@! TO.P,R56,1*
G04 #@! TO.N,GND*
X163068000Y-150495000D03*
G04 #@! TD*
G04 #@! TO.P,R57,1*
G04 #@! TO.N,Net-(C31-Pad2)*
X151892000Y-104140000D03*
D10*
G04 #@! TO.P,R57,2*
G04 #@! TO.N,Net-(C27-Pad1)*
X159512000Y-104140000D03*
G04 #@! TD*
G04 #@! TO.P,R58,2*
G04 #@! TO.N,Net-(C28-Pad1)*
X170561000Y-147955000D03*
D11*
G04 #@! TO.P,R58,1*
G04 #@! TO.N,Net-(C32-Pad2)*
X162941000Y-147955000D03*
G04 #@! TD*
D10*
G04 #@! TO.P,R59,2*
G04 #@! TO.N,Net-(R59-Pad2)*
X158614335Y-93760726D03*
D11*
G04 #@! TO.P,R59,1*
G04 #@! TO.N,Net-(C31-Pad2)*
X158614335Y-86140726D03*
G04 #@! TD*
G04 #@! TO.P,R60,1*
G04 #@! TO.N,GND*
X161417000Y-93853000D03*
D10*
G04 #@! TO.P,R60,2*
G04 #@! TO.N,Net-(R59-Pad2)*
X161417000Y-86233000D03*
G04 #@! TD*
G04 #@! TO.P,R61,2*
G04 #@! TO.N,Net-(R61-Pad2)*
X170688000Y-133096000D03*
D11*
G04 #@! TO.P,R61,1*
G04 #@! TO.N,Net-(C32-Pad2)*
X170688000Y-140716000D03*
G04 #@! TD*
G04 #@! TO.P,R62,1*
G04 #@! TO.N,GND*
X168021000Y-133096000D03*
D10*
G04 #@! TO.P,R62,2*
G04 #@! TO.N,Net-(R61-Pad2)*
X168021000Y-140716000D03*
G04 #@! TD*
G04 #@! TO.P,R63,2*
G04 #@! TO.N,Net-(R63-Pad2)*
X120269000Y-24765000D03*
D11*
G04 #@! TO.P,R63,1*
G04 #@! TO.N,Net-(R63-Pad1)*
X120269000Y-32385000D03*
G04 #@! TD*
G04 #@! TO.P,R64,1*
G04 #@! TO.N,Net-(R63-Pad1)*
X141224000Y-31750000D03*
D10*
G04 #@! TO.P,R64,2*
G04 #@! TO.N,Net-(R64-Pad2)*
X141224000Y-24130000D03*
G04 #@! TD*
G04 #@! TO.P,R65,2*
G04 #@! TO.N,Net-(R65-Pad2)*
X155448000Y-24130000D03*
D11*
G04 #@! TO.P,R65,1*
G04 #@! TO.N,Net-(R63-Pad1)*
X155448000Y-31750000D03*
G04 #@! TD*
D10*
G04 #@! TO.P,R66,2*
G04 #@! TO.N,Net-(C33-Pad1)*
X176784000Y-116332000D03*
D11*
G04 #@! TO.P,R66,1*
G04 #@! TO.N,GND*
X169164000Y-116332000D03*
G04 #@! TD*
G04 #@! TO.P,R67,1*
G04 #@! TO.N,GND*
X181483000Y-160655000D03*
D10*
G04 #@! TO.P,R67,2*
G04 #@! TO.N,Net-(C34-Pad1)*
X189103000Y-160655000D03*
G04 #@! TD*
G04 #@! TO.P,R68,2*
G04 #@! TO.N,Net-(C31-Pad1)*
X181610000Y-100584000D03*
D11*
G04 #@! TO.P,R68,1*
G04 #@! TO.N,Net-(R68-Pad1)*
X189230000Y-100584000D03*
G04 #@! TD*
G04 #@! TO.P,R69,1*
G04 #@! TO.N,Net-(R69-Pad1)*
X192024000Y-146939000D03*
D10*
G04 #@! TO.P,R69,2*
G04 #@! TO.N,Net-(C32-Pad1)*
X199644000Y-146939000D03*
G04 #@! TD*
D11*
G04 #@! TO.P,R70,1*
G04 #@! TO.N,Net-(10K1-Pad1)*
X122936000Y-32258000D03*
D10*
G04 #@! TO.P,R70,2*
G04 #@! TO.N,Net-(R70-Pad2)*
X122936000Y-24638000D03*
G04 #@! TD*
G04 #@! TO.P,R71,2*
G04 #@! TO.N,Net-(R71-Pad2)*
X138684000Y-24130000D03*
D11*
G04 #@! TO.P,R71,1*
G04 #@! TO.N,Net-(10K1-Pad1)*
X138684000Y-31750000D03*
G04 #@! TD*
G04 #@! TO.P,R73,1*
G04 #@! TO.N,Net-(R68-Pad1)*
X189992000Y-105664000D03*
D10*
G04 #@! TO.P,R73,2*
G04 #@! TO.N,Net-(R73-Pad2)*
X182372000Y-105664000D03*
G04 #@! TD*
G04 #@! TO.P,R74,2*
G04 #@! TO.N,Net-(R74-Pad2)*
X182372000Y-108204000D03*
D11*
G04 #@! TO.P,R74,1*
G04 #@! TO.N,Net-(R73-Pad2)*
X189992000Y-108204000D03*
G04 #@! TD*
G04 #@! TO.P,R75,1*
G04 #@! TO.N,Net-(R74-Pad2)*
X176784000Y-118872000D03*
D10*
G04 #@! TO.P,R75,2*
G04 #@! TO.N,GND*
X169164000Y-118872000D03*
G04 #@! TD*
G04 #@! TO.P,R76,2*
G04 #@! TO.N,Net-(R76-Pad2)*
X181610000Y-163068000D03*
D11*
G04 #@! TO.P,R76,1*
G04 #@! TO.N,Net-(R69-Pad1)*
X189230000Y-163068000D03*
G04 #@! TD*
G04 #@! TO.P,R77,1*
G04 #@! TO.N,Net-(R76-Pad2)*
X192278000Y-157988000D03*
D10*
G04 #@! TO.P,R77,2*
G04 #@! TO.N,Net-(R77-Pad2)*
X199898000Y-157988000D03*
G04 #@! TD*
G04 #@! TO.P,R78,2*
G04 #@! TO.N,GND*
X199898000Y-155448000D03*
D11*
G04 #@! TO.P,R78,1*
G04 #@! TO.N,Net-(R77-Pad2)*
X192278000Y-155448000D03*
G04 #@! TD*
D10*
G04 #@! TO.P,R79,2*
G04 #@! TO.N,Net-(C35-Pad1)*
X162814000Y-65278000D03*
D11*
G04 #@! TO.P,R79,1*
G04 #@! TO.N,Net-(C37-Pad1)*
X155194000Y-65278000D03*
G04 #@! TD*
D21*
G04 #@! TO.P,RV1,3*
G04 #@! TO.N,Net-(C22-Pad1)*
X117936000Y-15113000D03*
G04 #@! TO.P,RV1,2*
G04 #@! TO.N,Net-(R70-Pad2)*
X120436000Y-15113000D03*
G04 #@! TO.P,RV1,1*
G04 #@! TO.N,GND*
X122936000Y-15113000D03*
G04 #@! TO.P,RV1,6*
G04 #@! TO.N,Net-(C21-Pad1)*
X117936000Y-17613000D03*
G04 #@! TO.P,RV1,5*
G04 #@! TO.N,Net-(R63-Pad2)*
X120436000Y-17613000D03*
G04 #@! TO.P,RV1,4*
G04 #@! TO.N,GND*
X122936000Y-17613000D03*
G04 #@! TD*
G04 #@! TO.P,RV2,4*
G04 #@! TO.N,GND*
X142240000Y-17740000D03*
G04 #@! TO.P,RV2,5*
G04 #@! TO.N,Net-(R64-Pad2)*
X139740000Y-17740000D03*
G04 #@! TO.P,RV2,6*
G04 #@! TO.N,Net-(R35-Pad1)*
X137240000Y-17740000D03*
G04 #@! TO.P,RV2,1*
G04 #@! TO.N,GND*
X142240000Y-15240000D03*
G04 #@! TO.P,RV2,2*
G04 #@! TO.N,Net-(R71-Pad2)*
X139740000Y-15240000D03*
G04 #@! TO.P,RV2,3*
G04 #@! TO.N,Net-(R36-Pad1)*
X137240000Y-15240000D03*
G04 #@! TD*
G04 #@! TO.P,RV3,4*
G04 #@! TO.N,GND*
X175006000Y-17740000D03*
G04 #@! TO.P,RV3,5*
G04 #@! TO.N,Net-(RV3-Pad5)*
X172506000Y-17740000D03*
G04 #@! TO.P,RV3,6*
G04 #@! TO.N,Net-(R63-Pad1)*
X170006000Y-17740000D03*
G04 #@! TO.P,RV3,1*
G04 #@! TO.N,GND*
X175006000Y-15240000D03*
G04 #@! TO.P,RV3,2*
G04 #@! TO.N,Net-(RV3-Pad2)*
X172506000Y-15240000D03*
G04 #@! TO.P,RV3,3*
G04 #@! TO.N,Net-(10K1-Pad1)*
X170006000Y-15240000D03*
G04 #@! TD*
G04 #@! TO.P,RV4,3*
G04 #@! TO.N,Net-(R69-Pad1)*
X154258000Y-15240000D03*
G04 #@! TO.P,RV4,2*
G04 #@! TO.N,Net-(10K1-Pad2)*
X156758000Y-15240000D03*
G04 #@! TO.P,RV4,1*
G04 #@! TO.N,GND*
X159258000Y-15240000D03*
G04 #@! TO.P,RV4,6*
G04 #@! TO.N,Net-(R68-Pad1)*
X154258000Y-17740000D03*
G04 #@! TO.P,RV4,5*
G04 #@! TO.N,Net-(R65-Pad2)*
X156758000Y-17740000D03*
G04 #@! TO.P,RV4,4*
G04 #@! TO.N,GND*
X159258000Y-17740000D03*
G04 #@! TD*
D13*
G04 #@! TO.P,U1,1*
G04 #@! TO.N,Net-(C9-Pad1)*
X81280000Y-35560000D03*
D14*
G04 #@! TO.P,U1,5*
G04 #@! TO.N,Net-(C19-Pad2)*
X88900000Y-43180000D03*
G04 #@! TO.P,U1,2*
G04 #@! TO.N,Net-(R13-Pad2)*
X81280000Y-38100000D03*
G04 #@! TO.P,U1,6*
G04 #@! TO.N,Net-(R38-Pad2)*
X88900000Y-40640000D03*
G04 #@! TO.P,U1,3*
G04 #@! TO.N,Net-(C7-Pad1)*
X81280000Y-40640000D03*
G04 #@! TO.P,U1,7*
G04 #@! TO.N,Net-(C21-Pad1)*
X88900000Y-38100000D03*
G04 #@! TO.P,U1,4*
G04 #@! TO.N,Vcc-*
X81280000Y-43180000D03*
G04 #@! TO.P,U1,8*
G04 #@! TO.N,Vcc+*
X88900000Y-35560000D03*
G04 #@! TD*
D13*
G04 #@! TO.P,U2,1*
G04 #@! TO.N,Net-(C10-Pad1)*
X83248500Y-72326500D03*
D14*
G04 #@! TO.P,U2,5*
G04 #@! TO.N,Net-(C20-Pad2)*
X90868500Y-79946500D03*
G04 #@! TO.P,U2,2*
G04 #@! TO.N,Net-(R15-Pad2)*
X83248500Y-74866500D03*
G04 #@! TO.P,U2,6*
G04 #@! TO.N,Net-(R41-Pad2)*
X90868500Y-77406500D03*
G04 #@! TO.P,U2,3*
G04 #@! TO.N,Net-(C8-Pad1)*
X83248500Y-77406500D03*
G04 #@! TO.P,U2,7*
G04 #@! TO.N,Net-(C22-Pad1)*
X90868500Y-74866500D03*
G04 #@! TO.P,U2,4*
G04 #@! TO.N,Vcc-*
X83248500Y-79946500D03*
G04 #@! TO.P,U2,8*
G04 #@! TO.N,Vcc+*
X90868500Y-72326500D03*
G04 #@! TD*
G04 #@! TO.P,U3,8*
G04 #@! TO.N,Vcc+*
X88201500Y-111379000D03*
G04 #@! TO.P,U3,4*
G04 #@! TO.N,Vcc-*
X80581500Y-118999000D03*
G04 #@! TO.P,U3,7*
G04 #@! TO.N,Net-(R35-Pad1)*
X88201500Y-113919000D03*
G04 #@! TO.P,U3,3*
G04 #@! TO.N,Net-(C5-Pad1)*
X80581500Y-116459000D03*
G04 #@! TO.P,U3,6*
G04 #@! TO.N,Net-(R44-Pad2)*
X88201500Y-116459000D03*
G04 #@! TO.P,U3,2*
G04 #@! TO.N,Net-(R17-Pad2)*
X80581500Y-113919000D03*
G04 #@! TO.P,U3,5*
G04 #@! TO.N,Net-(C17-Pad1)*
X88201500Y-118999000D03*
D13*
G04 #@! TO.P,U3,1*
G04 #@! TO.N,Net-(C15-Pad2)*
X80581500Y-111379000D03*
G04 #@! TD*
G04 #@! TO.P,U4,1*
G04 #@! TO.N,Net-(C16-Pad2)*
X81788000Y-150622000D03*
D14*
G04 #@! TO.P,U4,5*
G04 #@! TO.N,Net-(C18-Pad1)*
X89408000Y-158242000D03*
G04 #@! TO.P,U4,2*
G04 #@! TO.N,Net-(R19-Pad2)*
X81788000Y-153162000D03*
G04 #@! TO.P,U4,6*
G04 #@! TO.N,Net-(R47-Pad2)*
X89408000Y-155702000D03*
G04 #@! TO.P,U4,3*
G04 #@! TO.N,Net-(C6-Pad1)*
X81788000Y-155702000D03*
G04 #@! TO.P,U4,7*
G04 #@! TO.N,Net-(R36-Pad1)*
X89408000Y-153162000D03*
G04 #@! TO.P,U4,4*
G04 #@! TO.N,Vcc-*
X81788000Y-158242000D03*
G04 #@! TO.P,U4,8*
G04 #@! TO.N,Vcc+*
X89408000Y-150622000D03*
G04 #@! TD*
G04 #@! TO.P,U5,8*
G04 #@! TO.N,Vcc+*
X127063500Y-101473000D03*
G04 #@! TO.P,U5,4*
G04 #@! TO.N,Vcc-*
X119443500Y-109093000D03*
G04 #@! TO.P,U5,7*
G04 #@! TO.N,Net-(C25-Pad1)*
X127063500Y-104013000D03*
G04 #@! TO.P,U5,3*
G04 #@! TO.N,Net-(C11-Pad1)*
X119443500Y-106553000D03*
G04 #@! TO.P,U5,6*
G04 #@! TO.N,Net-(R50-Pad2)*
X127063500Y-106553000D03*
G04 #@! TO.P,U5,2*
G04 #@! TO.N,Net-(R21-Pad2)*
X119443500Y-104013000D03*
G04 #@! TO.P,U5,5*
G04 #@! TO.N,Net-(C23-Pad2)*
X127063500Y-109093000D03*
D13*
G04 #@! TO.P,U5,1*
G04 #@! TO.N,Net-(C13-Pad1)*
X119443500Y-101473000D03*
G04 #@! TD*
D14*
G04 #@! TO.P,U7,8*
G04 #@! TO.N,Vcc+*
X176593500Y-100203000D03*
G04 #@! TO.P,U7,4*
G04 #@! TO.N,Vcc-*
X168973500Y-107823000D03*
G04 #@! TO.P,U7,7*
G04 #@! TO.N,Net-(R68-Pad1)*
X176593500Y-102743000D03*
G04 #@! TO.P,U7,3*
G04 #@! TO.N,Net-(C29-Pad1)*
X168973500Y-105283000D03*
G04 #@! TO.P,U7,6*
G04 #@! TO.N,Net-(R74-Pad2)*
X176593500Y-105283000D03*
G04 #@! TO.P,U7,2*
G04 #@! TO.N,Net-(R59-Pad2)*
X168973500Y-102743000D03*
G04 #@! TO.P,U7,5*
G04 #@! TO.N,Net-(C33-Pad1)*
X176593500Y-107823000D03*
D13*
G04 #@! TO.P,U7,1*
G04 #@! TO.N,Net-(C31-Pad2)*
X168973500Y-100203000D03*
G04 #@! TD*
D14*
G04 #@! TO.P,U8,8*
G04 #@! TO.N,Vcc+*
X186753500Y-144653000D03*
G04 #@! TO.P,U8,4*
G04 #@! TO.N,Vcc-*
X179133500Y-152273000D03*
G04 #@! TO.P,U8,7*
G04 #@! TO.N,Net-(R69-Pad1)*
X186753500Y-147193000D03*
G04 #@! TO.P,U8,3*
G04 #@! TO.N,Net-(C30-Pad1)*
X179133500Y-149733000D03*
G04 #@! TO.P,U8,6*
G04 #@! TO.N,Net-(R77-Pad2)*
X186753500Y-149733000D03*
G04 #@! TO.P,U8,2*
G04 #@! TO.N,Net-(R61-Pad2)*
X179133500Y-147193000D03*
G04 #@! TO.P,U8,5*
G04 #@! TO.N,Net-(C34-Pad1)*
X186753500Y-152273000D03*
D13*
G04 #@! TO.P,U8,1*
G04 #@! TO.N,Net-(C32-Pad2)*
X179133500Y-144653000D03*
G04 #@! TD*
G04 #@! TO.P,U9,1*
G04 #@! TO.N,Net-(U9-Pad1)*
X143002000Y-65278000D03*
D14*
G04 #@! TO.P,U9,5*
G04 #@! TO.N,Net-(C37-Pad1)*
X150622000Y-72898000D03*
G04 #@! TO.P,U9,2*
G04 #@! TO.N,GND*
X143002000Y-67818000D03*
G04 #@! TO.P,U9,6*
G04 #@! TO.N,Vcc+*
X150622000Y-70358000D03*
G04 #@! TO.P,U9,3*
G04 #@! TO.N,Net-(RV3-Pad5)*
X143002000Y-70358000D03*
G04 #@! TO.P,U9,7*
G04 #@! TO.N,Net-(U9-Pad7)*
X150622000Y-67818000D03*
G04 #@! TO.P,U9,4*
G04 #@! TO.N,GND*
X143002000Y-72898000D03*
G04 #@! TO.P,U9,8*
G04 #@! TO.N,Net-(U9-Pad8)*
X150622000Y-65278000D03*
G04 #@! TD*
G04 #@! TO.P,U10,8*
G04 #@! TO.N,Net-(U10-Pad8)*
X150622000Y-79248000D03*
G04 #@! TO.P,U10,4*
G04 #@! TO.N,GND*
X143002000Y-86868000D03*
G04 #@! TO.P,U10,7*
G04 #@! TO.N,Net-(U10-Pad7)*
X150622000Y-81788000D03*
G04 #@! TO.P,U10,3*
G04 #@! TO.N,Net-(RV3-Pad2)*
X143002000Y-84328000D03*
G04 #@! TO.P,U10,6*
G04 #@! TO.N,Vcc+*
X150622000Y-84328000D03*
G04 #@! TO.P,U10,2*
G04 #@! TO.N,GND*
X143002000Y-81788000D03*
G04 #@! TO.P,U10,5*
G04 #@! TO.N,Net-(C38-Pad1)*
X150622000Y-86868000D03*
D13*
G04 #@! TO.P,U10,1*
G04 #@! TO.N,Net-(U10-Pad1)*
X143002000Y-79248000D03*
G04 #@! TD*
D22*
G04 #@! TO.N,Net-(10K1-Pad1)*
X122936000Y-40894000D03*
X132842000Y-40894000D03*
X137668000Y-40894000D03*
X157480000Y-40894000D03*
D23*
G04 #@! TO.N,Vcc+*
X97282000Y-28702000D03*
X97282000Y-70358000D03*
X90678000Y-108712000D03*
D22*
X90678000Y-111760000D03*
X92329000Y-148336000D03*
X129540000Y-93726000D03*
X161925000Y-97790000D03*
X179959000Y-97790000D03*
X130175000Y-100584000D03*
X130429000Y-142113000D03*
X185039000Y-140462000D03*
X135763000Y-142494000D03*
X114808000Y-70104000D03*
X130556000Y-70612000D03*
G04 #@! TO.N,GND*
X112268000Y-116840000D03*
X112268000Y-109982000D03*
X114046000Y-161036000D03*
X124714000Y-160782000D03*
X112268000Y-156210000D03*
X112268000Y-148336000D03*
X122936000Y-20320000D03*
X143002000Y-20574000D03*
X143256000Y-22352000D03*
X159766000Y-21844000D03*
X122428000Y-21336000D03*
X115824000Y-21590000D03*
X143256000Y-110744000D03*
X148844000Y-110744000D03*
X165354000Y-138684000D03*
X166624000Y-143002000D03*
X79502000Y-147574000D03*
X86868000Y-147828000D03*
X77470000Y-130302000D03*
X73660000Y-130302000D03*
G04 #@! TO.N,Vcc-*
X53340000Y-36576000D03*
X82804000Y-49530000D03*
D23*
X83312000Y-88138000D03*
X80772000Y-124460000D03*
D22*
X53340000Y-128651000D03*
X53340000Y-137414000D03*
X81407000Y-162433000D03*
X119507000Y-115443000D03*
X119507000Y-117602000D03*
X130810000Y-117602000D03*
X119507000Y-120142000D03*
X121412000Y-154305000D03*
X124333000Y-154305000D03*
X131699000Y-154305000D03*
X86614000Y-162306000D03*
X111252000Y-162814000D03*
D23*
G04 #@! TO.N,IN_RIGHT*
X56134000Y-88900000D03*
X56134000Y-82804000D03*
D22*
G04 #@! TO.N,IN_LEFT*
X75946000Y-170180000D03*
X53340000Y-170180000D03*
G04 #@! TO.N,Net-(C21-Pad2)*
X77978000Y-35814000D03*
X77216000Y-22352000D03*
D24*
X81280000Y-53086000D03*
D23*
G04 #@! TO.N,Net-(C22-Pad2)*
X85598000Y-68326000D03*
X85598000Y-88900000D03*
D22*
G04 #@! TO.N,Net-(C22-Pad1)*
X106426000Y-21971000D03*
X106553000Y-73533000D03*
G04 #@! TO.N,Net-(C25-Pad2)*
X105537000Y-93599000D03*
X106680000Y-125984000D03*
G04 #@! TO.N,Net-(C26-Pad2)*
X117602000Y-161544000D03*
X116840000Y-137922000D03*
G04 #@! TO.N,Net-(C33-Pad1)*
X193548000Y-101854000D03*
X193548000Y-109474000D03*
G04 #@! TO.N,Net-(R35-Pad1)*
X130048000Y-37338000D03*
X134366000Y-37338000D03*
X95758000Y-110998000D03*
X112522000Y-51054000D03*
G04 #@! TO.N,Net-(R36-Pad1)*
X96266000Y-150114000D03*
X117348000Y-73660000D03*
G04 #@! TO.N,Net-(R59-Pad2)*
X196088000Y-101854000D03*
X196088000Y-109474000D03*
G04 #@! TO.N,Net-(R63-Pad1)*
X120396000Y-42926000D03*
X140462000Y-43434000D03*
X144780000Y-43434000D03*
G04 #@! TO.N,Net-(R68-Pad1)*
X150622000Y-46482000D03*
X150622000Y-37084000D03*
X160274000Y-79502000D03*
X124460000Y-80772000D03*
G04 #@! TO.N,Net-(R69-Pad1)*
X147320000Y-34290000D03*
X148082000Y-49022000D03*
X135890000Y-119634000D03*
X135890000Y-93472000D03*
G04 #@! TO.N,Net-(RV3-Pad5)*
X136398000Y-59436000D03*
X136398000Y-66040000D03*
G04 #@! TO.N,Net-(RV3-Pad2)*
X140970000Y-57404000D03*
X138684000Y-83312000D03*
G04 #@! TD*
D25*
G04 #@! TO.N,Net-(10K1-Pad1)*
X122936000Y-40894000D02*
X132842000Y-40894000D01*
X137668000Y-40894000D02*
X157480000Y-40894000D01*
G04 #@! TO.N,Vcc+*
X97282000Y-28702000D02*
X97282000Y-70358000D01*
X97282000Y-70358000D02*
X94234000Y-73406000D01*
X92964000Y-74676000D02*
X92964000Y-86106000D01*
X94234000Y-73406000D02*
X92964000Y-74676000D01*
X90678000Y-88392000D02*
X90678000Y-108712000D01*
X92964000Y-86106000D02*
X90678000Y-88392000D01*
X90678000Y-146685000D02*
X92329000Y-148336000D01*
X90678000Y-111760000D02*
X90678000Y-146685000D01*
X127127000Y-86995000D02*
X127063500Y-87058500D01*
X161925000Y-97790000D02*
X179959000Y-97790000D01*
X130175000Y-100584000D02*
X130175000Y-115482062D01*
X131860010Y-140681990D02*
X130429000Y-142113000D01*
X130175000Y-115482062D02*
X131860010Y-117167072D01*
X131860010Y-117167072D02*
X131860010Y-140681990D01*
X185039000Y-140462000D02*
X187325000Y-138176000D01*
X187325000Y-138176000D02*
X187325000Y-133223000D01*
X187325000Y-133223000D02*
X186563000Y-132461000D01*
X185293000Y-131191000D02*
X163957000Y-131191000D01*
X186563000Y-132461000D02*
X185293000Y-131191000D01*
X152654000Y-142494000D02*
X135763000Y-142494000D01*
X163957000Y-131191000D02*
X152654000Y-142494000D01*
X115207999Y-70503999D02*
X129939999Y-70503999D01*
X114808000Y-70104000D02*
X115207999Y-70503999D01*
X130048000Y-70612000D02*
X130556000Y-70612000D01*
X129939999Y-70503999D02*
X130048000Y-70612000D01*
X127127000Y-86995000D02*
X127127000Y-86741000D01*
X127127000Y-86741000D02*
X121412000Y-81026000D01*
X121412000Y-81026000D02*
X121412000Y-76708000D01*
X121412000Y-76708000D02*
X128016000Y-76708000D01*
X130556000Y-74168000D02*
X130556000Y-71177685D01*
X130556000Y-71177685D02*
X130556000Y-70612000D01*
X128016000Y-76708000D02*
X130556000Y-74168000D01*
X127127000Y-91313000D02*
X129540000Y-93726000D01*
X127127000Y-86741000D02*
X127127000Y-91313000D01*
G04 #@! TO.N,GND*
X112268000Y-116840000D02*
X112268000Y-109982000D01*
D26*
X114046000Y-161036000D02*
X117094000Y-164084000D01*
X121412000Y-164084000D02*
X124714000Y-160782000D01*
X117094000Y-164084000D02*
X121412000Y-164084000D01*
X112268000Y-156210000D02*
X112268000Y-148336000D01*
X142748000Y-20320000D02*
X143002000Y-20574000D01*
X122936000Y-20320000D02*
X142748000Y-20320000D01*
X143764000Y-21844000D02*
X159766000Y-21844000D01*
X143256000Y-22352000D02*
X143764000Y-21844000D01*
X116078000Y-21336000D02*
X115824000Y-21590000D01*
X122428000Y-21336000D02*
X116078000Y-21336000D01*
D25*
X143256000Y-110744000D02*
X148844000Y-110744000D01*
X165354000Y-141732000D02*
X166624000Y-143002000D01*
X165354000Y-138684000D02*
X165354000Y-141732000D01*
X86614000Y-147574000D02*
X86868000Y-147828000D01*
X79502000Y-147574000D02*
X86614000Y-147574000D01*
X77470000Y-130302000D02*
X73660000Y-130302000D01*
G04 #@! TO.N,Vcc-*
X53340000Y-36576000D02*
X53340000Y-49276000D01*
X53340000Y-49276000D02*
X58166000Y-54102000D01*
X58166000Y-54102000D02*
X59944000Y-55880000D01*
X59944000Y-55880000D02*
X80518000Y-55880000D01*
X80518000Y-55880000D02*
X82804000Y-53594000D01*
X82804000Y-53594000D02*
X82804000Y-49530000D01*
X59944000Y-55880000D02*
X60198000Y-55880000D01*
X60198000Y-55880000D02*
X67818000Y-63500000D01*
X67818000Y-63500000D02*
X67818000Y-89662000D01*
X67818000Y-89662000D02*
X71374000Y-93218000D01*
X71374000Y-93218000D02*
X81788000Y-93218000D01*
X83312000Y-91694000D02*
X83312000Y-88138000D01*
X81788000Y-93218000D02*
X83312000Y-91694000D01*
X53340000Y-49276000D02*
X53340000Y-120396000D01*
X53340000Y-120396000D02*
X61214000Y-128270000D01*
X61214000Y-128270000D02*
X76962000Y-128270000D01*
X76962000Y-128270000D02*
X80772000Y-124460000D01*
X53340000Y-120396000D02*
X53340000Y-128651000D01*
X53340000Y-137414000D02*
X53340000Y-161290000D01*
X53340000Y-161290000D02*
X59182000Y-167132000D01*
X59182000Y-167132000D02*
X76835000Y-167132000D01*
X76835000Y-167132000D02*
X78613000Y-165354000D01*
X78613000Y-165354000D02*
X78613000Y-163576000D01*
X79756000Y-162433000D02*
X81407000Y-162433000D01*
X78613000Y-163576000D02*
X79756000Y-162433000D01*
X119507000Y-117602000D02*
X130810000Y-117602000D01*
X119507000Y-120707685D02*
X121412000Y-122612685D01*
X119507000Y-120142000D02*
X119507000Y-120707685D01*
X121412000Y-122612685D02*
X121412000Y-154305000D01*
X124333000Y-154305000D02*
X131699000Y-154305000D01*
X87122000Y-162814000D02*
X111252000Y-162814000D01*
X86614000Y-162306000D02*
X87122000Y-162814000D01*
G04 #@! TO.N,IN_RIGHT*
X56134000Y-88900000D02*
X56134000Y-82804000D01*
G04 #@! TO.N,IN_LEFT*
X75946000Y-170180000D02*
X53340000Y-170180000D01*
D26*
G04 #@! TO.N,Net-(C10-Pad1)*
X76708000Y-88530630D02*
X76708000Y-89662000D01*
X71855949Y-73152000D02*
X76708000Y-78004051D01*
X76708000Y-78004051D02*
X76708000Y-88530630D01*
X70866000Y-73152000D02*
X71855949Y-73152000D01*
D25*
G04 #@! TO.N,Net-(C21-Pad2)*
X77978000Y-35814000D02*
X79248000Y-34544000D01*
X79248000Y-34544000D02*
X79248000Y-24130000D01*
X77470000Y-22352000D02*
X77216000Y-22352000D01*
X79248000Y-24130000D02*
X77470000Y-22352000D01*
X77978000Y-41950002D02*
X79502000Y-43474002D01*
X77978000Y-35814000D02*
X77978000Y-41950002D01*
X79502000Y-43474002D02*
X79502000Y-50038000D01*
X79502000Y-50038000D02*
X81280000Y-51816000D01*
X81280000Y-51816000D02*
X81280000Y-53086000D01*
G04 #@! TO.N,Net-(C22-Pad2)*
X85598000Y-68326000D02*
X85598000Y-69033106D01*
X85598000Y-69033106D02*
X85598000Y-88900000D01*
G04 #@! TO.N,Net-(C22-Pad1)*
X106426000Y-73406000D02*
X106553000Y-73533000D01*
X106426000Y-21971000D02*
X106426000Y-73406000D01*
D26*
G04 #@! TO.N,Net-(C25-Pad2)*
X106680000Y-125984000D02*
X106680000Y-121412000D01*
X106680000Y-121412000D02*
X103886000Y-118618000D01*
X103886000Y-118618000D02*
X103886000Y-108966000D01*
X103886000Y-108966000D02*
X100076000Y-105156000D01*
X100076000Y-105156000D02*
X100076000Y-99060000D01*
D25*
X101346000Y-97790000D02*
X105537000Y-93599000D01*
D26*
X100076000Y-99060000D02*
X101346000Y-97790000D01*
D25*
X100711000Y-98425000D02*
X101346000Y-97790000D01*
G04 #@! TO.N,Net-(C26-Pad2)*
X117602000Y-138684000D02*
X116840000Y-137922000D01*
X117602000Y-161544000D02*
X117602000Y-138684000D01*
G04 #@! TO.N,Net-(C33-Pad1)*
X193548000Y-101854000D02*
X193548000Y-109474000D01*
G04 #@! TO.N,Net-(R35-Pad1)*
X130048000Y-37338000D02*
X134366000Y-37338000D01*
X95758000Y-110998000D02*
X95758000Y-107696000D01*
X95758000Y-107696000D02*
X98298000Y-105156000D01*
X97445999Y-104303999D02*
X97445999Y-99150001D01*
X98298000Y-105156000D02*
X97445999Y-104303999D01*
X112522000Y-84074000D02*
X112522000Y-51054000D01*
X97445999Y-99150001D02*
X112522000Y-84074000D01*
G04 #@! TO.N,Net-(R36-Pad1)*
X94651999Y-148499999D02*
X94651999Y-141060001D01*
X96266000Y-150114000D02*
X94651999Y-148499999D01*
X94651999Y-141060001D02*
X108204000Y-127508000D01*
X111088001Y-107498001D02*
X112298001Y-106288001D01*
X112298001Y-106288001D02*
X112298001Y-89377999D01*
X108204000Y-127508000D02*
X108488001Y-127223999D01*
X108488001Y-127223999D02*
X108488001Y-114016001D01*
X108488001Y-114016001D02*
X111088001Y-111416001D01*
X111088001Y-111416001D02*
X111088001Y-107498001D01*
X117348000Y-84328000D02*
X117348000Y-73660000D01*
X112298001Y-89377999D02*
X117348000Y-84328000D01*
G04 #@! TO.N,Net-(R59-Pad2)*
X196088000Y-101854000D02*
X196088000Y-109474000D01*
G04 #@! TO.N,Net-(R63-Pad1)*
X120904000Y-43434000D02*
X140462000Y-43434000D01*
X120396000Y-42926000D02*
X120904000Y-43434000D01*
G04 #@! TO.N,Net-(R68-Pad1)*
X150622000Y-46482000D02*
X160782000Y-46482000D01*
X160782000Y-46482000D02*
X164084000Y-43180000D01*
X164084000Y-43180000D02*
X164084000Y-38100000D01*
X164084000Y-38100000D02*
X163068000Y-37084000D01*
X163068000Y-37084000D02*
X150622000Y-37084000D01*
X160274000Y-79502000D02*
X157734000Y-79502000D01*
X157734000Y-79502000D02*
X153924000Y-83312000D01*
X153924000Y-83312000D02*
X153924000Y-88392000D01*
X153924000Y-88392000D02*
X151638000Y-90678000D01*
X151638000Y-90678000D02*
X140716000Y-90678000D01*
X140716000Y-90678000D02*
X133096000Y-83058000D01*
X133096000Y-83058000D02*
X129540000Y-83058000D01*
X129540000Y-83058000D02*
X127254000Y-80772000D01*
X127254000Y-80772000D02*
X124460000Y-80772000D01*
G04 #@! TO.N,Net-(R69-Pad1)*
X147320000Y-34290000D02*
X164084000Y-34290000D01*
X164084000Y-34290000D02*
X166624000Y-36830000D01*
X166624000Y-36830000D02*
X166624000Y-44704000D01*
X162306000Y-49022000D02*
X148082000Y-49022000D01*
X166624000Y-44704000D02*
X162306000Y-49022000D01*
X135890000Y-119634000D02*
X135890000Y-93472000D01*
G04 #@! TO.N,Net-(RV3-Pad5)*
X136398000Y-59436000D02*
X136398000Y-66040000D01*
G04 #@! TO.N,Net-(RV3-Pad2)*
X138684000Y-59690000D02*
X138684000Y-83312000D01*
X140970000Y-57404000D02*
X138684000Y-59690000D01*
G04 #@! TD*
M02*
